<svg xmlns="http://www.w3.org/2000/svg" version="1.1" xmlns:xlink="http://www.w3.org/1999/xlink" xmlns:svgjs="http://svgjs.com/svgjs" width="1440" height="560" preserveAspectRatio="none" viewBox="0 0 1440 560"><g mask="url(&quot;#SvgjsMask1000&quot;)" fill="none"><rect width="1440" height="560" x="0" y="0" fill="#1e3266"></rect><path d="M1464 560L0 560 L0 296.38Q93.75 270.13, 120 363.89Q137.64 309.53, 192 327.17Q264.64 279.81, 312 352.46Q318.15 286.61, 384 292.75Q438.52 227.27, 504 281.79Q562.98 268.77, 576 327.75Q634.73 314.48, 648 373.21Q673.68 326.89, 720 352.57Q727.92 288.49, 792 296.4Q860.55 244.95, 912 313.5Q1001.31 282.81, 1032 372.12Q1055.35 275.47, 1152 298.82Q1224 250.82, 1272 322.82Q1327.93 306.75, 1344 362.69Q1395.34 294.02, 1464 345.36z" fill="#182f5d"></path><path d="M1464 560L0 560 L0 402.41Q74.31 356.73, 120 431.04Q151.28 342.32, 240 373.6Q289.88 303.49, 360 353.37Q464.01 337.38, 480 441.4Q489.64 379.04, 552 388.69Q595.85 360.54, 624 404.39Q678.16 386.55, 696 440.71Q724.66 397.37, 768 426.03Q771.21 357.24, 840 360.45Q878.31 326.76, 912 365.08Q978.04 311.12, 1032 377.16Q1093.33 366.49, 1104 427.81Q1129.32 333.13, 1224 358.44Q1305.38 319.81, 1344 401.19Q1418.41 355.61, 1464 430.02z" fill="#25467d"></path><path d="M1464 560L0 560 L0 424.57Q70.75 423.32, 72 494.08Q88.17 438.25, 144 454.41Q193.3 431.71, 216 481.01Q265.17 458.18, 288 507.35Q311.4 410.75, 408 434.16Q449.65 403.81, 480 445.46Q545.11 438.56, 552 503.67Q577.22 456.89, 624 482.11Q669.85 407.96, 744 453.81Q792.68 382.49, 864 431.17Q926.84 422.01, 936 484.86Q986.43 463.29, 1008 513.72Q1016.5 450.22, 1080 458.71Q1129.89 388.61, 1200 438.5Q1289.88 408.38, 1320 498.25Q1350.07 456.31, 1392 486.38Q1398.41 420.79, 1464 427.2z" fill="#356cb1"></path><path d="M1512 560L0 560 L0 520.05Q26.36 474.41, 72 500.77Q131.04 487.81, 144 546.85Q168.78 499.63, 216 524.42Q274.65 511.07, 288 569.71Q313.84 475.55, 408 501.38Q453.45 474.83, 480 520.28Q567.41 487.69, 600 575.1Q629.18 532.28, 672 561.46Q673 490.46, 744 491.45Q832.02 459.47, 864 547.49Q939.95 503.44, 984 579.4Q1001.73 477.13, 1104 494.86Q1145.47 464.33, 1176 505.8Q1243.55 501.35, 1248 568.9Q1292.09 492.99, 1368 537.08Q1392.58 489.66, 1440 514.24Q1496.47 498.71, 1512 555.18z" fill="white"></path></g><defs><mask id="SvgjsMask1000"><rect width="1440" height="560" fill="#ffffff"></rect></mask></defs></svg>